# xmcd
#
# Track frame offsets: 
#        150
#        19385
#        33702
#
# Disc length: 694 seconds
#
# Revision: 4
# Processed by: cddbd v1.5.2PL0 Copyright (c) Steve Scherf et al.
# Submitted via: ExactAudioCopy v1.0b3
#
DISCID=2202b403
DTITLE=西野カナ - Darling
DYEAR=2014
DGENRE=JPop
TTITLE0=Darling
TTITLE1=LOVE and JOY
TTITLE2=Still love you
EXTD=YEAR: 1992
EXTT0=
EXTT1=
EXTT2=
PLAYORDER=
